<svg xmlns="http://www.w3.org/2000/svg" xmlns:xlink="http://www.w3.org/1999/xlink" width="475" zoomAndPan="magnify" viewBox="0 0 356.25 71.249999" height="95" preserveAspectRatio="xMidYMid meet" version="1.0"><defs><g/><clipPath id="3775066269"><path d="M 5 0 L 350 0 L 350 70.402344 L 5 70.402344 Z M 5 0 " clip-rule="nonzero"/></clipPath><clipPath id="f3cf9250e9"><path d="M 349.097656 31.308594 C 349.097656 31.136719 349.097656 30.96875 349.011719 30.796875 C 349.011719 30.882812 349.011719 30.796875 349.011719 30.710938 C 348.925781 30.28125 348.839844 29.855469 348.753906 29.34375 C 348.582031 28.058594 348.238281 26.777344 347.8125 25.492188 C 347.640625 24.808594 347.46875 24.210938 347.210938 23.609375 C 347.039062 23.183594 346.867188 22.753906 346.78125 22.328125 C 346.78125 22.328125 346.78125 22.328125 346.78125 22.242188 C 346.699219 22.070312 346.613281 21.898438 346.527344 21.726562 C 346.011719 20.445312 345.414062 19.246094 344.726562 18.050781 C 344.382812 17.453125 344.042969 16.851562 343.613281 16.253906 C 343.355469 15.824219 343.097656 15.484375 342.839844 15.054688 C 342.757812 14.886719 342.671875 14.714844 342.5 14.628906 C 342.585938 14.542969 342.585938 14.542969 342.585938 14.542969 C 341.640625 13.34375 340.785156 12.234375 339.757812 11.121094 C 338.816406 10.09375 337.699219 9.152344 336.671875 8.210938 C 336.160156 7.785156 335.558594 7.355469 335.042969 6.929688 C 334.957031 6.929688 334.617188 6.671875 334.875 6.757812 C 334.789062 6.671875 334.703125 6.585938 334.617188 6.585938 C 334.273438 6.332031 333.84375 6.074219 333.503906 5.816406 C 332.386719 5.046875 331.273438 4.449219 330.074219 3.847656 C 329.476562 3.507812 328.875 3.25 328.277344 2.992188 C 327.847656 2.824219 327.503906 2.652344 327.074219 2.480469 C 327.160156 2.566406 327.074219 2.480469 326.992188 2.480469 C 326.820312 2.394531 326.648438 2.308594 326.390625 2.308594 C 325.105469 1.882812 323.820312 1.367188 322.535156 1.113281 C 321.847656 0.941406 321.164062 0.769531 320.476562 0.683594 C 319.964844 0.597656 319.535156 0.511719 319.023438 0.425781 C 318.851562 0.425781 318.679688 0.34375 318.507812 0.34375 C 318.507812 0.34375 318.507812 0.34375 318.421875 0.34375 C 316.964844 0.171875 315.507812 0.0859375 314.050781 0.0859375 C 312.851562 0.0859375 311.652344 0.0859375 310.539062 0.0859375 C 302.226562 0.0859375 293.917969 0.0859375 285.519531 0.0859375 C 271.382812 0.0859375 257.246094 0.0859375 243.105469 0.0859375 C 225.710938 0.0859375 208.40625 0.0859375 191.011719 0.0859375 C 173.019531 0.0859375 155.023438 0.0859375 137.03125 0.0859375 C 121.007812 0 104.984375 0 88.960938 0 C 77.394531 0 65.914062 0 54.347656 0 C 49.890625 0 45.519531 0 41.066406 0 C 40.207031 0 39.265625 0 38.410156 0.0859375 C 37.808594 0.171875 37.296875 0.171875 36.695312 0.257812 C 36.695312 0.257812 36.695312 0.257812 36.609375 0.257812 C 36.523438 0.257812 36.351562 0.257812 36.265625 0.34375 C 35.925781 0.425781 35.667969 0.425781 35.324219 0.511719 C 33.527344 0.769531 31.726562 1.199219 30.097656 1.796875 C 29.667969 1.96875 29.242188 2.136719 28.726562 2.308594 C 28.554688 2.394531 28.382812 2.394531 28.214844 2.480469 C 28.128906 2.480469 28.128906 2.480469 28.128906 2.480469 C 27.441406 2.738281 26.757812 2.992188 26.15625 3.335938 C 24.871094 4.019531 23.585938 4.703125 22.300781 5.476562 C 21.101562 6.160156 19.988281 7.101562 18.875 7.957031 C 18.789062 7.957031 18.445312 8.296875 18.703125 8.125 C 18.617188 8.210938 18.53125 8.296875 18.445312 8.382812 C 18.101562 8.726562 17.761719 8.980469 17.417969 9.324219 C 16.902344 9.753906 16.476562 10.265625 15.960938 10.691406 C 15.019531 11.632812 14.160156 12.660156 13.304688 13.6875 C 13.046875 14.03125 12.789062 14.285156 12.617188 14.628906 C 12.789062 14.457031 12.535156 14.714844 12.535156 14.800781 C 12.449219 14.96875 12.277344 15.140625 12.191406 15.3125 C 11.847656 15.824219 11.417969 16.425781 11.078125 17.023438 C 10.390625 18.222656 9.707031 19.332031 9.191406 20.617188 C 9.019531 21.042969 8.761719 21.558594 8.59375 21.984375 C 8.421875 21.984375 8.335938 22.15625 8.335938 22.242188 C 8.421875 22.15625 8.335938 22.242188 8.335938 22.328125 C 7.992188 23.097656 7.734375 23.695312 7.5625 24.378906 C 7.136719 25.835938 6.792969 27.203125 6.449219 28.65625 C 6.277344 29.34375 6.191406 30.113281 6.105469 30.796875 C 6.105469 30.882812 6.105469 30.882812 6.105469 30.96875 C 6.105469 31.136719 6.105469 31.394531 6.019531 31.566406 C 6.019531 31.992188 5.9375 32.421875 5.9375 32.847656 C 5.765625 34.21875 5.851562 35.585938 5.9375 36.957031 C 6.019531 38.496094 6.191406 39.605469 6.363281 40.976562 C 6.535156 42.257812 6.878906 43.542969 7.222656 44.824219 C 7.390625 45.511719 7.5625 46.109375 7.820312 46.707031 C 7.992188 47.136719 8.164062 47.5625 8.335938 48.078125 C 8.335938 48.160156 8.335938 48.160156 8.335938 48.160156 C 8.421875 48.332031 8.421875 48.503906 8.507812 48.675781 C 9.019531 49.957031 9.621094 51.15625 10.304688 52.355469 C 10.648438 52.953125 10.992188 53.550781 11.417969 54.148438 C 11.675781 54.492188 11.933594 54.917969 12.191406 55.261719 C 12.277344 55.433594 12.449219 55.605469 12.535156 55.773438 C 12.617188 55.859375 12.617188 55.945312 12.617188 55.945312 C 13.5625 57.144531 14.417969 58.257812 15.445312 59.28125 C 16.390625 60.308594 17.503906 61.25 18.53125 62.191406 C 18.617188 62.277344 18.789062 62.449219 18.703125 62.363281 C 18.789062 62.449219 18.960938 62.535156 19.046875 62.617188 C 19.386719 62.875 19.816406 63.21875 20.160156 63.472656 C 20.671875 63.902344 21.273438 64.246094 21.785156 64.671875 C 22.902344 65.441406 24.101562 66.039062 25.214844 66.640625 C 25.8125 66.980469 26.414062 67.238281 27.015625 67.496094 C 27.441406 67.667969 27.785156 67.835938 28.214844 68.007812 C 28.128906 67.921875 28.214844 68.007812 28.300781 68.007812 C 28.46875 68.09375 28.640625 68.179688 28.898438 68.179688 C 30.183594 68.605469 31.46875 69.035156 32.753906 69.378906 C 33.441406 69.546875 34.125 69.71875 34.8125 69.804688 C 35.324219 69.890625 35.753906 69.976562 36.265625 70.0625 C 36.4375 70.0625 36.609375 70.148438 36.78125 70.148438 C 36.78125 70.148438 36.78125 70.148438 36.867188 70.148438 C 38.324219 70.316406 39.78125 70.402344 41.238281 70.402344 C 42.4375 70.402344 43.636719 70.402344 44.75 70.402344 C 53.0625 70.402344 61.371094 70.402344 69.769531 70.402344 C 83.90625 70.402344 98.046875 70.402344 112.183594 70.402344 C 129.578125 70.402344 146.882812 70.402344 164.277344 70.402344 C 182.273438 70.402344 200.265625 70.402344 218.257812 70.402344 C 234.28125 70.402344 250.390625 70.402344 266.414062 70.402344 C 277.894531 70.402344 289.460938 70.402344 300.941406 70.402344 C 305.398438 70.402344 309.769531 70.402344 314.222656 70.402344 C 315.167969 70.402344 316.023438 70.402344 316.964844 70.316406 C 317.566406 70.234375 318.164062 70.234375 318.765625 70.148438 C 318.507812 70.148438 319.109375 70.0625 319.191406 70.0625 C 319.535156 69.976562 319.792969 69.976562 320.136719 69.890625 C 321.933594 69.632812 323.734375 69.207031 325.449219 68.605469 C 325.875 68.4375 326.390625 68.265625 326.820312 68.09375 C 326.90625 68.007812 327.074219 68.007812 327.160156 67.921875 C 327.160156 67.921875 327.246094 67.921875 327.332031 67.835938 C 328.019531 67.582031 328.617188 67.324219 329.304688 66.980469 C 330.589844 66.296875 331.875 65.613281 333.160156 64.84375 C 333.757812 64.5 334.359375 64.074219 334.957031 63.644531 C 335.042969 63.644531 335.042969 63.558594 335.042969 63.558594 C 335.042969 63.558594 335.042969 63.558594 335.128906 63.558594 C 335.300781 63.472656 335.386719 63.304688 335.558594 63.21875 C 335.902344 62.960938 336.246094 62.703125 336.585938 62.363281 C 337.699219 61.507812 338.644531 60.566406 339.585938 59.625 C 340.527344 58.683594 341.386719 57.65625 342.242188 56.628906 C 342.414062 56.460938 342.585938 56.203125 342.757812 56.03125 C 342.757812 56.03125 343.011719 55.691406 342.839844 55.859375 C 343.011719 55.605469 343.269531 55.261719 343.441406 55.003906 C 343.785156 54.492188 344.210938 53.894531 344.554688 53.292969 C 345.242188 52.097656 345.925781 50.984375 346.441406 49.703125 C 346.613281 49.273438 346.867188 48.761719 347.039062 48.332031 C 347.125 48.246094 347.125 48.078125 347.210938 47.992188 C 347.125 48.246094 347.210938 47.90625 347.296875 47.820312 C 347.554688 47.136719 347.8125 46.535156 347.984375 45.851562 C 348.410156 44.484375 348.839844 43.113281 349.097656 41.660156 C 349.183594 40.890625 349.355469 40.207031 349.4375 39.4375 C 349.4375 39.605469 349.4375 39.351562 349.4375 39.265625 C 349.4375 39.007812 349.4375 38.835938 349.523438 38.582031 C 349.523438 38.152344 349.609375 37.8125 349.609375 37.382812 C 349.78125 36.015625 349.695312 34.558594 349.609375 33.191406 C 349.183594 32.679688 349.097656 31.992188 349.097656 31.308594 Z M 349.097656 31.308594 " clip-rule="nonzero"/></clipPath><linearGradient x1="-0.0999999" gradientTransform="matrix(0.856831, 0, 0, 0.85545, 5.849954, 0.000000989583)" y1="41.174999" x2="401.400119" gradientUnits="userSpaceOnUse" y2="41.174999" id="43b9712c2f"><stop stop-opacity="1" stop-color="rgb(100%, 59.999084%, 100%)" offset="0"/><stop stop-opacity="1" stop-color="rgb(100%, 59.999084%, 100%)" offset="0.0625"/><stop stop-opacity="1" stop-color="rgb(99.937439%, 60.041809%, 99.990845%)" offset="0.09375"/><stop stop-opacity="1" stop-color="rgb(99.694824%, 60.211182%, 99.958801%)" offset="0.101562"/><stop stop-opacity="1" stop-color="rgb(99.334717%, 60.464478%, 99.909973%)" offset="0.109375"/><stop stop-opacity="1" stop-color="rgb(98.973083%, 60.716248%, 99.862671%)" offset="0.117187"/><stop stop-opacity="1" stop-color="rgb(98.61145%, 60.969543%, 99.813843%)" offset="0.125"/><stop stop-opacity="1" stop-color="rgb(98.251343%, 61.221313%, 99.766541%)" offset="0.132812"/><stop stop-opacity="1" stop-color="rgb(97.889709%, 61.474609%, 99.717712%)" offset="0.140625"/><stop stop-opacity="1" stop-color="rgb(97.528076%, 61.727905%, 99.67041%)" offset="0.148437"/><stop stop-opacity="1" stop-color="rgb(97.167969%, 61.979675%, 99.621582%)" offset="0.15625"/><stop stop-opacity="1" stop-color="rgb(96.806335%, 62.232971%, 99.57428%)" offset="0.164062"/><stop stop-opacity="1" stop-color="rgb(96.444702%, 62.484741%, 99.525452%)" offset="0.171875"/><stop stop-opacity="1" stop-color="rgb(96.084595%, 62.738037%, 99.478149%)" offset="0.179687"/><stop stop-opacity="1" stop-color="rgb(95.722961%, 62.991333%, 99.429321%)" offset="0.1875"/><stop stop-opacity="1" stop-color="rgb(95.361328%, 63.243103%, 99.382019%)" offset="0.195312"/><stop stop-opacity="1" stop-color="rgb(95.001221%, 63.496399%, 99.333191%)" offset="0.203125"/><stop stop-opacity="1" stop-color="rgb(94.639587%, 63.748169%, 99.285889%)" offset="0.210937"/><stop stop-opacity="1" stop-color="rgb(94.27948%, 64.001465%, 99.237061%)" offset="0.21875"/><stop stop-opacity="1" stop-color="rgb(93.917847%, 64.253235%, 99.189758%)" offset="0.226562"/><stop stop-opacity="1" stop-color="rgb(93.556213%, 64.506531%, 99.14093%)" offset="0.234375"/><stop stop-opacity="1" stop-color="rgb(93.196106%, 64.759827%, 99.093628%)" offset="0.242187"/><stop stop-opacity="1" stop-color="rgb(92.834473%, 65.011597%, 99.0448%)" offset="0.25"/><stop stop-opacity="1" stop-color="rgb(92.472839%, 65.264893%, 98.997498%)" offset="0.257812"/><stop stop-opacity="1" stop-color="rgb(92.112732%, 65.516663%, 98.948669%)" offset="0.265625"/><stop stop-opacity="1" stop-color="rgb(91.751099%, 65.769958%, 98.901367%)" offset="0.273437"/><stop stop-opacity="1" stop-color="rgb(91.389465%, 66.023254%, 98.852539%)" offset="0.28125"/><stop stop-opacity="1" stop-color="rgb(91.029358%, 66.275024%, 98.805237%)" offset="0.289062"/><stop stop-opacity="1" stop-color="rgb(90.667725%, 66.52832%, 98.756409%)" offset="0.296875"/><stop stop-opacity="1" stop-color="rgb(90.306091%, 66.78009%, 98.709106%)" offset="0.304687"/><stop stop-opacity="1" stop-color="rgb(89.945984%, 67.033386%, 98.660278%)" offset="0.3125"/><stop stop-opacity="1" stop-color="rgb(89.584351%, 67.286682%, 98.612976%)" offset="0.320312"/><stop stop-opacity="1" stop-color="rgb(89.222717%, 67.538452%, 98.564148%)" offset="0.328125"/><stop stop-opacity="1" stop-color="rgb(88.86261%, 67.791748%, 98.51532%)" offset="0.335937"/><stop stop-opacity="1" stop-color="rgb(88.500977%, 68.043518%, 98.468018%)" offset="0.34375"/><stop stop-opacity="1" stop-color="rgb(88.139343%, 68.296814%, 98.419189%)" offset="0.351562"/><stop stop-opacity="1" stop-color="rgb(87.779236%, 68.55011%, 98.371887%)" offset="0.359375"/><stop stop-opacity="1" stop-color="rgb(87.417603%, 68.80188%, 98.323059%)" offset="0.367187"/><stop stop-opacity="1" stop-color="rgb(87.055969%, 69.055176%, 98.275757%)" offset="0.375"/><stop stop-opacity="1" stop-color="rgb(86.695862%, 69.306946%, 98.226929%)" offset="0.382812"/><stop stop-opacity="1" stop-color="rgb(86.334229%, 69.560242%, 98.179626%)" offset="0.390625"/><stop stop-opacity="1" stop-color="rgb(85.972595%, 69.813538%, 98.130798%)" offset="0.398437"/><stop stop-opacity="1" stop-color="rgb(85.612488%, 70.065308%, 98.083496%)" offset="0.40625"/><stop stop-opacity="1" stop-color="rgb(85.250854%, 70.318604%, 98.034668%)" offset="0.414062"/><stop stop-opacity="1" stop-color="rgb(84.889221%, 70.570374%, 97.987366%)" offset="0.421875"/><stop stop-opacity="1" stop-color="rgb(84.529114%, 70.823669%, 97.938538%)" offset="0.429687"/><stop stop-opacity="1" stop-color="rgb(84.16748%, 71.076965%, 97.891235%)" offset="0.4375"/><stop stop-opacity="1" stop-color="rgb(83.805847%, 71.328735%, 97.842407%)" offset="0.445312"/><stop stop-opacity="1" stop-color="rgb(83.44574%, 71.582031%, 97.795105%)" offset="0.453125"/><stop stop-opacity="1" stop-color="rgb(83.084106%, 71.833801%, 97.746277%)" offset="0.460937"/><stop stop-opacity="1" stop-color="rgb(82.722473%, 72.087097%, 97.698975%)" offset="0.46875"/><stop stop-opacity="1" stop-color="rgb(82.362366%, 72.340393%, 97.650146%)" offset="0.476562"/><stop stop-opacity="1" stop-color="rgb(82.000732%, 72.592163%, 97.602844%)" offset="0.484375"/><stop stop-opacity="1" stop-color="rgb(81.639099%, 72.845459%, 97.554016%)" offset="0.492187"/><stop stop-opacity="1" stop-color="rgb(81.278992%, 73.097229%, 97.506714%)" offset="0.5"/><stop stop-opacity="1" stop-color="rgb(80.917358%, 73.350525%, 97.457886%)" offset="0.507812"/><stop stop-opacity="1" stop-color="rgb(80.555725%, 73.602295%, 97.410583%)" offset="0.515625"/><stop stop-opacity="1" stop-color="rgb(80.195618%, 73.855591%, 97.361755%)" offset="0.523437"/><stop stop-opacity="1" stop-color="rgb(79.833984%, 74.108887%, 97.314453%)" offset="0.53125"/><stop stop-opacity="1" stop-color="rgb(79.472351%, 74.360657%, 97.265625%)" offset="0.539062"/><stop stop-opacity="1" stop-color="rgb(79.112244%, 74.613953%, 97.218323%)" offset="0.546875"/><stop stop-opacity="1" stop-color="rgb(78.75061%, 74.865723%, 97.169495%)" offset="0.554688"/><stop stop-opacity="1" stop-color="rgb(78.390503%, 75.119019%, 97.122192%)" offset="0.5625"/><stop stop-opacity="1" stop-color="rgb(78.02887%, 75.372314%, 97.073364%)" offset="0.570312"/><stop stop-opacity="1" stop-color="rgb(77.667236%, 75.624084%, 97.026062%)" offset="0.578125"/><stop stop-opacity="1" stop-color="rgb(77.307129%, 75.87738%, 96.977234%)" offset="0.585937"/><stop stop-opacity="1" stop-color="rgb(76.945496%, 76.12915%, 96.929932%)" offset="0.59375"/><stop stop-opacity="1" stop-color="rgb(76.583862%, 76.382446%, 96.881104%)" offset="0.601562"/><stop stop-opacity="1" stop-color="rgb(76.223755%, 76.635742%, 96.833801%)" offset="0.609375"/><stop stop-opacity="1" stop-color="rgb(75.862122%, 76.887512%, 96.784973%)" offset="0.617187"/><stop stop-opacity="1" stop-color="rgb(75.500488%, 77.140808%, 96.737671%)" offset="0.625"/><stop stop-opacity="1" stop-color="rgb(75.140381%, 77.392578%, 96.688843%)" offset="0.632812"/><stop stop-opacity="1" stop-color="rgb(74.778748%, 77.645874%, 96.641541%)" offset="0.640625"/><stop stop-opacity="1" stop-color="rgb(74.417114%, 77.89917%, 96.592712%)" offset="0.648437"/><stop stop-opacity="1" stop-color="rgb(74.057007%, 78.15094%, 96.54541%)" offset="0.65625"/><stop stop-opacity="1" stop-color="rgb(73.695374%, 78.404236%, 96.496582%)" offset="0.664062"/><stop stop-opacity="1" stop-color="rgb(73.33374%, 78.656006%, 96.44928%)" offset="0.671875"/><stop stop-opacity="1" stop-color="rgb(72.973633%, 78.909302%, 96.400452%)" offset="0.679688"/><stop stop-opacity="1" stop-color="rgb(72.612%, 79.162598%, 96.353149%)" offset="0.6875"/><stop stop-opacity="1" stop-color="rgb(72.250366%, 79.414368%, 96.304321%)" offset="0.695312"/><stop stop-opacity="1" stop-color="rgb(71.890259%, 79.667664%, 96.257019%)" offset="0.703125"/><stop stop-opacity="1" stop-color="rgb(71.528625%, 79.919434%, 96.208191%)" offset="0.710937"/><stop stop-opacity="1" stop-color="rgb(71.166992%, 80.172729%, 96.160889%)" offset="0.71875"/><stop stop-opacity="1" stop-color="rgb(70.806885%, 80.426025%, 96.112061%)" offset="0.726562"/><stop stop-opacity="1" stop-color="rgb(70.445251%, 80.677795%, 96.063232%)" offset="0.734375"/><stop stop-opacity="1" stop-color="rgb(70.083618%, 80.931091%, 96.01593%)" offset="0.742187"/><stop stop-opacity="1" stop-color="rgb(69.723511%, 81.182861%, 95.967102%)" offset="0.75"/><stop stop-opacity="1" stop-color="rgb(69.361877%, 81.436157%, 95.9198%)" offset="0.757812"/><stop stop-opacity="1" stop-color="rgb(69.000244%, 81.687927%, 95.870972%)" offset="0.765625"/><stop stop-opacity="1" stop-color="rgb(68.640137%, 81.941223%, 95.823669%)" offset="0.773437"/><stop stop-opacity="1" stop-color="rgb(68.278503%, 82.194519%, 95.774841%)" offset="0.78125"/><stop stop-opacity="1" stop-color="rgb(67.91687%, 82.446289%, 95.727539%)" offset="0.789062"/><stop stop-opacity="1" stop-color="rgb(67.556763%, 82.699585%, 95.678711%)" offset="0.796875"/><stop stop-opacity="1" stop-color="rgb(67.195129%, 82.951355%, 95.631409%)" offset="0.804688"/><stop stop-opacity="1" stop-color="rgb(66.833496%, 83.204651%, 95.582581%)" offset="0.8125"/><stop stop-opacity="1" stop-color="rgb(66.473389%, 83.457947%, 95.535278%)" offset="0.820312"/><stop stop-opacity="1" stop-color="rgb(66.111755%, 83.709717%, 95.48645%)" offset="0.828125"/><stop stop-opacity="1" stop-color="rgb(65.750122%, 83.963013%, 95.439148%)" offset="0.835937"/><stop stop-opacity="1" stop-color="rgb(65.390015%, 84.214783%, 95.39032%)" offset="0.84375"/><stop stop-opacity="1" stop-color="rgb(65.028381%, 84.468079%, 95.343018%)" offset="0.851562"/><stop stop-opacity="1" stop-color="rgb(64.77356%, 84.646606%, 95.307922%)" offset="0.859375"/><stop stop-opacity="1" stop-color="rgb(64.698792%, 84.698486%, 95.298767%)" offset="0.875"/><stop stop-opacity="1" stop-color="rgb(64.698792%, 84.698486%, 95.298767%)" offset="1"/></linearGradient></defs><g clip-path="url(#3775066269)"><g clip-path="url(#f3cf9250e9)"><path fill="url(#43b9712c2f)" d="M 5.765625 0 L 5.765625 70.402344 L 349.78125 70.402344 L 349.78125 0 Z M 5.765625 0 " fill-rule="nonzero"/></g></g><g fill="#ffffff" fill-opacity="1"><g transform="translate(61.601787, 46.490657)"><g><path d="M 16.84375 -23.203125 L 16.84375 -20.75 L 10.515625 -20.75 L 10.515625 0 L 7.484375 0 L 7.484375 -20.75 L 1.125 -20.75 L 1.125 -23.203125 Z M 16.84375 -23.203125 "/></g></g></g><g fill="#ffffff" fill-opacity="1"><g transform="translate(79.612092, 46.490657)"><g><path d="M 19.21875 -9.828125 C 19.21875 -9.242188 19.179688 -8.628906 19.109375 -7.984375 L 4.53125 -7.984375 C 4.632812 -6.191406 5.25 -4.789062 6.375 -3.78125 C 7.5 -2.769531 8.859375 -2.265625 10.453125 -2.265625 C 11.765625 -2.265625 12.859375 -2.566406 13.734375 -3.171875 C 14.609375 -3.785156 15.222656 -4.601562 15.578125 -5.625 L 18.84375 -5.625 C 18.351562 -3.875 17.375 -2.445312 15.90625 -1.34375 C 14.445312 -0.25 12.628906 0.296875 10.453125 0.296875 C 8.722656 0.296875 7.175781 -0.0859375 5.8125 -0.859375 C 4.445312 -1.640625 3.375 -2.742188 2.59375 -4.171875 C 1.820312 -5.609375 1.4375 -7.269531 1.4375 -9.15625 C 1.4375 -11.039062 1.8125 -12.691406 2.5625 -14.109375 C 3.320312 -15.535156 4.382812 -16.628906 5.75 -17.390625 C 7.113281 -18.160156 8.679688 -18.546875 10.453125 -18.546875 C 12.179688 -18.546875 13.710938 -18.164062 15.046875 -17.40625 C 16.378906 -16.65625 17.40625 -15.617188 18.125 -14.296875 C 18.851562 -12.972656 19.21875 -11.484375 19.21875 -9.828125 Z M 16.078125 -10.453125 C 16.078125 -11.609375 15.820312 -12.601562 15.3125 -13.4375 C 14.800781 -14.269531 14.109375 -14.898438 13.234375 -15.328125 C 12.359375 -15.765625 11.390625 -15.984375 10.328125 -15.984375 C 8.796875 -15.984375 7.488281 -15.492188 6.40625 -14.515625 C 5.332031 -13.535156 4.71875 -12.179688 4.5625 -10.453125 Z M 16.078125 -10.453125 "/></g></g></g><g fill="#ffffff" fill-opacity="1"><g transform="translate(100.252372, 46.490657)"><g><path d="M 1.4375 -9.1875 C 1.4375 -11.050781 1.8125 -12.6875 2.5625 -14.09375 C 3.320312 -15.507812 4.359375 -16.601562 5.671875 -17.375 C 6.992188 -18.15625 8.46875 -18.546875 10.09375 -18.546875 C 11.6875 -18.546875 13.070312 -18.203125 14.25 -17.515625 C 15.425781 -16.828125 16.300781 -15.960938 16.875 -14.921875 L 16.875 -18.25 L 19.9375 -18.25 L 19.9375 0 L 16.875 0 L 16.875 -3.390625 C 16.28125 -2.328125 15.390625 -1.445312 14.203125 -0.75 C 13.015625 -0.0507812 11.632812 0.296875 10.0625 0.296875 C 8.4375 0.296875 6.96875 -0.0976562 5.65625 -0.890625 C 4.351562 -1.691406 3.320312 -2.8125 2.5625 -4.25 C 1.8125 -5.695312 1.4375 -7.34375 1.4375 -9.1875 Z M 16.875 -9.15625 C 16.875 -10.53125 16.597656 -11.726562 16.046875 -12.75 C 15.492188 -13.769531 14.742188 -14.550781 13.796875 -15.09375 C 12.859375 -15.644531 11.820312 -15.921875 10.6875 -15.921875 C 9.550781 -15.921875 8.515625 -15.648438 7.578125 -15.109375 C 6.648438 -14.578125 5.910156 -13.800781 5.359375 -12.78125 C 4.804688 -11.757812 4.53125 -10.5625 4.53125 -9.1875 C 4.53125 -7.789062 4.804688 -6.578125 5.359375 -5.546875 C 5.910156 -4.515625 6.648438 -3.722656 7.578125 -3.171875 C 8.515625 -2.628906 9.550781 -2.359375 10.6875 -2.359375 C 11.820312 -2.359375 12.859375 -2.628906 13.796875 -3.171875 C 14.742188 -3.722656 15.492188 -4.515625 16.046875 -5.546875 C 16.597656 -6.578125 16.875 -7.78125 16.875 -9.15625 Z M 16.875 -9.15625 "/></g></g></g><g fill="#ffffff" fill-opacity="1"><g transform="translate(122.756938, 46.490657)"><g><path d="M 1.4375 -9.15625 C 1.4375 -11.039062 1.8125 -12.6875 2.5625 -14.09375 C 3.320312 -15.507812 4.367188 -16.601562 5.703125 -17.375 C 7.046875 -18.15625 8.585938 -18.546875 10.328125 -18.546875 C 12.566406 -18.546875 14.410156 -18 15.859375 -16.90625 C 17.316406 -15.820312 18.28125 -14.316406 18.75 -12.390625 L 15.484375 -12.390625 C 15.171875 -13.492188 14.5625 -14.367188 13.65625 -15.015625 C 12.757812 -15.660156 11.648438 -15.984375 10.328125 -15.984375 C 8.585938 -15.984375 7.1875 -15.390625 6.125 -14.203125 C 5.0625 -13.015625 4.53125 -11.332031 4.53125 -9.15625 C 4.53125 -6.957031 5.0625 -5.257812 6.125 -4.0625 C 7.1875 -2.863281 8.585938 -2.265625 10.328125 -2.265625 C 11.648438 -2.265625 12.753906 -2.570312 13.640625 -3.1875 C 14.535156 -3.8125 15.148438 -4.703125 15.484375 -5.859375 L 18.75 -5.859375 C 18.257812 -3.992188 17.28125 -2.5 15.8125 -1.375 C 14.351562 -0.257812 12.523438 0.296875 10.328125 0.296875 C 8.585938 0.296875 7.046875 -0.0859375 5.703125 -0.859375 C 4.367188 -1.640625 3.320312 -2.738281 2.5625 -4.15625 C 1.8125 -5.582031 1.4375 -7.25 1.4375 -9.15625 Z M 1.4375 -9.15625 "/></g></g></g><g fill="#ffffff" fill-opacity="1"><g transform="translate(142.964435, 46.490657)"><g><path d="M 11.625 -18.578125 C 13 -18.578125 14.238281 -18.28125 15.34375 -17.6875 C 16.457031 -17.101562 17.328125 -16.222656 17.953125 -15.046875 C 18.585938 -13.867188 18.90625 -12.4375 18.90625 -10.75 L 18.90625 0 L 15.921875 0 L 15.921875 -10.328125 C 15.921875 -12.140625 15.460938 -13.53125 14.546875 -14.5 C 13.640625 -15.46875 12.398438 -15.953125 10.828125 -15.953125 C 9.222656 -15.953125 7.945312 -15.453125 7 -14.453125 C 6.0625 -13.453125 5.59375 -12 5.59375 -10.09375 L 5.59375 0 L 2.5625 0 L 2.5625 -24.640625 L 5.59375 -24.640625 L 5.59375 -15.65625 C 6.195312 -16.582031 7.023438 -17.300781 8.078125 -17.8125 C 9.128906 -18.320312 10.3125 -18.578125 11.625 -18.578125 Z M 11.625 -18.578125 "/></g></g></g><g fill="#ffffff" fill-opacity="1"><g transform="translate(164.270529, 46.490657)"><g><path d="M 19.21875 -9.828125 C 19.21875 -9.242188 19.179688 -8.628906 19.109375 -7.984375 L 4.53125 -7.984375 C 4.632812 -6.191406 5.25 -4.789062 6.375 -3.78125 C 7.5 -2.769531 8.859375 -2.265625 10.453125 -2.265625 C 11.765625 -2.265625 12.859375 -2.566406 13.734375 -3.171875 C 14.609375 -3.785156 15.222656 -4.601562 15.578125 -5.625 L 18.84375 -5.625 C 18.351562 -3.875 17.375 -2.445312 15.90625 -1.34375 C 14.445312 -0.25 12.628906 0.296875 10.453125 0.296875 C 8.722656 0.296875 7.175781 -0.0859375 5.8125 -0.859375 C 4.445312 -1.640625 3.375 -2.742188 2.59375 -4.171875 C 1.820312 -5.609375 1.4375 -7.269531 1.4375 -9.15625 C 1.4375 -11.039062 1.8125 -12.691406 2.5625 -14.109375 C 3.320312 -15.535156 4.382812 -16.628906 5.75 -17.390625 C 7.113281 -18.160156 8.679688 -18.546875 10.453125 -18.546875 C 12.179688 -18.546875 13.710938 -18.164062 15.046875 -17.40625 C 16.378906 -16.65625 17.40625 -15.617188 18.125 -14.296875 C 18.851562 -12.972656 19.21875 -11.484375 19.21875 -9.828125 Z M 16.078125 -10.453125 C 16.078125 -11.609375 15.820312 -12.601562 15.3125 -13.4375 C 14.800781 -14.269531 14.109375 -14.898438 13.234375 -15.328125 C 12.359375 -15.765625 11.390625 -15.984375 10.328125 -15.984375 C 8.796875 -15.984375 7.488281 -15.492188 6.40625 -14.515625 C 5.332031 -13.535156 4.71875 -12.179688 4.5625 -10.453125 Z M 16.078125 -10.453125 "/></g></g></g><g fill="#ffffff" fill-opacity="1"><g transform="translate(184.910809, 46.490657)"><g><path d="M 5.59375 -15.28125 C 6.125 -16.320312 6.882812 -17.128906 7.875 -17.703125 C 8.863281 -18.285156 10.066406 -18.578125 11.484375 -18.578125 L 11.484375 -15.453125 L 10.6875 -15.453125 C 7.289062 -15.453125 5.59375 -13.609375 5.59375 -9.921875 L 5.59375 0 L 2.5625 0 L 2.5625 -18.25 L 5.59375 -18.25 Z M 5.59375 -15.28125 "/></g></g></g><g fill="#ffffff" fill-opacity="1"><g transform="translate(197.328267, 46.490657)"><g/></g></g><g fill="#ffffff" fill-opacity="1"><g transform="translate(206.216903, 46.490657)"><g><path d="M 5.59375 -2.46875 L 13.71875 -2.46875 L 13.71875 0 L 2.5625 0 L 2.5625 -23.203125 L 5.59375 -23.203125 Z M 5.59375 -2.46875 "/></g></g></g><g fill="#ffffff" fill-opacity="1"><g transform="translate(220.598521, 46.490657)"><g><path d="M 10.515625 0.296875 C 8.804688 0.296875 7.257812 -0.0859375 5.875 -0.859375 C 4.488281 -1.640625 3.398438 -2.742188 2.609375 -4.171875 C 1.828125 -5.609375 1.4375 -7.269531 1.4375 -9.15625 C 1.4375 -11.019531 1.835938 -12.664062 2.640625 -14.09375 C 3.453125 -15.53125 4.554688 -16.628906 5.953125 -17.390625 C 7.359375 -18.160156 8.925781 -18.546875 10.65625 -18.546875 C 12.382812 -18.546875 13.945312 -18.160156 15.34375 -17.390625 C 16.75 -16.628906 17.851562 -15.535156 18.65625 -14.109375 C 19.46875 -12.691406 19.875 -11.039062 19.875 -9.15625 C 19.875 -7.269531 19.457031 -5.609375 18.625 -4.171875 C 17.789062 -2.742188 16.664062 -1.640625 15.25 -0.859375 C 13.832031 -0.0859375 12.253906 0.296875 10.515625 0.296875 Z M 10.515625 -2.359375 C 11.609375 -2.359375 12.628906 -2.613281 13.578125 -3.125 C 14.535156 -3.632812 15.304688 -4.398438 15.890625 -5.421875 C 16.484375 -6.441406 16.78125 -7.6875 16.78125 -9.15625 C 16.78125 -10.625 16.488281 -11.867188 15.90625 -12.890625 C 15.332031 -13.910156 14.578125 -14.671875 13.640625 -15.171875 C 12.710938 -15.671875 11.707031 -15.921875 10.625 -15.921875 C 9.507812 -15.921875 8.488281 -15.671875 7.5625 -15.171875 C 6.644531 -14.671875 5.910156 -13.910156 5.359375 -12.890625 C 4.804688 -11.867188 4.53125 -10.625 4.53125 -9.15625 C 4.53125 -7.664062 4.800781 -6.410156 5.34375 -5.390625 C 5.882812 -4.367188 6.609375 -3.609375 7.515625 -3.109375 C 8.429688 -2.609375 9.429688 -2.359375 10.515625 -2.359375 Z M 10.515625 -2.359375 "/></g></g></g><g fill="#ffffff" fill-opacity="1"><g transform="translate(241.904606, 46.490657)"><g><path d="M 10.09375 -18.546875 C 11.664062 -18.546875 13.046875 -18.203125 14.234375 -17.515625 C 15.421875 -16.828125 16.300781 -15.960938 16.875 -14.921875 L 16.875 -18.25 L 19.9375 -18.25 L 19.9375 0.40625 C 19.9375 2.0625 19.582031 3.539062 18.875 4.84375 C 18.164062 6.144531 17.148438 7.160156 15.828125 7.890625 C 14.503906 8.617188 12.96875 8.984375 11.21875 8.984375 C 8.820312 8.984375 6.820312 8.414062 5.21875 7.28125 C 3.625 6.15625 2.679688 4.613281 2.390625 2.65625 L 5.390625 2.65625 C 5.722656 3.769531 6.410156 4.664062 7.453125 5.34375 C 8.503906 6.019531 9.757812 6.359375 11.21875 6.359375 C 12.882812 6.359375 14.242188 5.835938 15.296875 4.796875 C 16.347656 3.753906 16.875 2.289062 16.875 0.40625 L 16.875 -3.421875 C 16.28125 -2.359375 15.394531 -1.472656 14.21875 -0.765625 C 13.039062 -0.0546875 11.664062 0.296875 10.09375 0.296875 C 8.46875 0.296875 6.992188 -0.0976562 5.671875 -0.890625 C 4.359375 -1.691406 3.320312 -2.8125 2.5625 -4.25 C 1.8125 -5.695312 1.4375 -7.34375 1.4375 -9.1875 C 1.4375 -11.050781 1.8125 -12.6875 2.5625 -14.09375 C 3.320312 -15.507812 4.359375 -16.601562 5.671875 -17.375 C 6.992188 -18.15625 8.46875 -18.546875 10.09375 -18.546875 Z M 16.875 -9.15625 C 16.875 -10.53125 16.597656 -11.726562 16.046875 -12.75 C 15.492188 -13.769531 14.742188 -14.550781 13.796875 -15.09375 C 12.859375 -15.644531 11.820312 -15.921875 10.6875 -15.921875 C 9.550781 -15.921875 8.515625 -15.648438 7.578125 -15.109375 C 6.648438 -14.578125 5.910156 -13.800781 5.359375 -12.78125 C 4.804688 -11.757812 4.53125 -10.5625 4.53125 -9.1875 C 4.53125 -7.789062 4.804688 -6.578125 5.359375 -5.546875 C 5.910156 -4.515625 6.648438 -3.722656 7.578125 -3.171875 C 8.515625 -2.628906 9.550781 -2.359375 10.6875 -2.359375 C 11.820312 -2.359375 12.859375 -2.628906 13.796875 -3.171875 C 14.742188 -3.722656 15.492188 -4.515625 16.046875 -5.546875 C 16.597656 -6.578125 16.875 -7.78125 16.875 -9.15625 Z M 16.875 -9.15625 "/></g></g></g><g fill="#ffffff" fill-opacity="1"><g transform="translate(264.409162, 46.490657)"><g><path d="M 4.125 -21.203125 C 3.550781 -21.203125 3.0625 -21.398438 2.65625 -21.796875 C 2.257812 -22.203125 2.0625 -22.695312 2.0625 -23.28125 C 2.0625 -23.851562 2.257812 -24.335938 2.65625 -24.734375 C 3.0625 -25.140625 3.550781 -25.34375 4.125 -25.34375 C 4.6875 -25.34375 5.160156 -25.140625 5.546875 -24.734375 C 5.929688 -24.335938 6.125 -23.851562 6.125 -23.28125 C 6.125 -22.695312 5.929688 -22.203125 5.546875 -21.796875 C 5.160156 -21.398438 4.6875 -21.203125 4.125 -21.203125 Z M 5.59375 -18.25 L 5.59375 0 L 2.5625 0 L 2.5625 -18.25 Z M 5.59375 -18.25 "/></g></g></g><g fill="#ffffff" fill-opacity="1"><g transform="translate(272.598702, 46.490657)"><g><path d="M 11.453125 -18.578125 C 13.671875 -18.578125 15.46875 -17.90625 16.84375 -16.5625 C 18.21875 -15.21875 18.90625 -13.28125 18.90625 -10.75 L 18.90625 0 L 15.921875 0 L 15.921875 -10.328125 C 15.921875 -12.140625 15.460938 -13.53125 14.546875 -14.5 C 13.640625 -15.46875 12.398438 -15.953125 10.828125 -15.953125 C 9.222656 -15.953125 7.945312 -15.453125 7 -14.453125 C 6.0625 -13.453125 5.59375 -12 5.59375 -10.09375 L 5.59375 0 L 2.5625 0 L 2.5625 -18.25 L 5.59375 -18.25 L 5.59375 -15.65625 C 6.195312 -16.582031 7.015625 -17.300781 8.046875 -17.8125 C 9.078125 -18.320312 10.210938 -18.578125 11.453125 -18.578125 Z M 11.453125 -18.578125 "/></g></g></g></svg>